<svg xmlns="http://www.w3.org/2000/svg" viewBox="0 0 545 62">
  <g fill="none" fill-rule="evenodd">
    <g fill="#FFF" transform="translate(295 14)">
      <path d="M.4248 17.7246c0-2.399.3-4.7.9-6.899.6-2.101 1.4-3.901 2.4-5.5 1-1.5 2.301-2.701 3.801-3.601 1.5-.899 3.199-1.3 4.899-1.3 2 0 3.7.5 5.101 1.5 1.399 1 2.599 2.3 3.599 3.7l-1.4.9c-.8-1.4-1.8-2.5-3-3.3-1.199-.8-2.6-1.2-4.199-1.2-1.5 0-2.901.4-4.201 1.2-1.2.8-2.299 1.9-3.2 3.3-.9 1.4-1.599 3-2.099 5-.5 1.9-.701 4-.701 6.301 0 2.299.201 4.399.701 6.299.5 2 1.199 3.6 2.099 5 .901 1.401 2 2.5 3.2 3.3 1.201.8 2.6 1.2 4.201 1.2 1.699 0 3.199-.5 4.399-1.4 1.2-.899 2.2-2.1 3-3.699l1.4.8c-1 1.799-2.2 3.2-3.6 4.2s-3.1 1.599-5.199 1.599c-1.801 0-3.401-.4-4.901-1.299-1.5-.901-2.7-2.101-3.8-3.601-1-1.5-1.799-3.399-2.4-5.5-.7-2.199-1-4.5-1-7"/>
      <polygon points="27.0254 34.4248 27.0254 1.0248 28.6254 1.0248 28.6254 16.5248 44.7244 16.5248 44.7244 1.0248 46.3254 1.0248 46.3254 34.3248 44.7244 34.3248 44.7244 18.0258 28.6254 18.0258 28.6254 34.4248"/>
      <polygon points="54.3252 34.4248 54.3252 1.0248 69.8252 1.0248 69.8252 2.5248 55.9252 2.5248 55.9252 16.5248 69.4252 16.5248 69.4252 18.0258 55.9252 18.0258 55.9252 32.9248 69.8252 32.9248 69.8252 34.4248"/>
      <path d="M78.125 23.9248h12.3l-6.2-20.8-6.1 20.8zm-4.8 10.5l10-33.3h1.9l10.1 33.3h-1.8l-2.7-9h-13.2l-2.7 9h-1.6z"/>
      <polygon points="95.3252 2.5249 95.3252 1.0249 113.7242 1.0249 113.7242 2.5249 105.3252 2.5249 105.3252 34.4249 103.7242 34.4249 103.7242 2.5249"/>
      <path d="M117.0254 30.9248l1.199-1.2c.7 1 1.801 1.9 3.101 2.7 1.3.7 2.8 1.101 4.399 1.101 1.301 0 2.401-.201 3.401-.601.9-.399 1.7-.899 2.299-1.6.601-.6 1-1.4 1.3-2.2.301-.8.401-1.7.401-2.599 0-1.701-.401-3-1.1-4.101-.7-1.1-1.7-2-2.801-2.8-1.099-.8-2.3-1.5-3.699-2.099-1.301-.601-2.5-1.301-3.601-2.101-1.099-.8-2.099-1.7-2.799-2.8-.701-1.1-1.1-2.5-1.1-4.2 0-1.2.199-2.3.699-3.3.5-1 1.101-1.8 1.801-2.5.8-.7 1.699-1.2 2.699-1.5 1-.4 2.101-.5 3.101-.5 1.7 0 3.2.3 4.5.9 1.3.6 2.399 1.4 3.3 2.5l-1.1 1.2c-.801-1-1.801-1.8-3-2.3-1.101-.5-2.4-.7-3.7-.7-.901 0-1.8.1-2.601.4-.8.3-1.5.7-2.099 1.3-.6.6-1.1 1.2-1.401 2-.399.8-.5 1.7-.5 2.6 0 1.4.401 2.6 1.101 3.5.8 1 1.7 1.8 2.8 2.5 1 .7 2.2 1.3 3.7 2.1 1.3.7 2.5 1.401 3.599 2.3 1.101.9 2.101 1.9 2.8 3.101.7 1.199 1.101 2.699 1.101 4.599 0 1.1-.2 2.1-.5 3.1s-.901 1.9-1.601 2.7c-.699.8-1.699 1.5-2.8 2-1.2.5-2.5.8-4.2.8-1.899 0-3.599-.4-5.099-1.1-1.401-1-2.6-2-3.6-3.2"/>
      <polygon points="141.4248 34.4248 141.4248 1.0248 143.0258 1.0248 143.0258 16.5248 159.1248 16.5248 159.1248 1.0248 160.7248 1.0248 160.7248 34.3248 159.1248 34.3248 159.1248 18.0258 143.0258 18.0258 143.0258 34.4248"/>
      <polygon points="168.625 34.4248 168.625 1.0248 184.125 1.0248 184.125 2.5248 170.225 2.5248 170.225 16.5248 183.725 16.5248 183.725 18.0258 170.225 18.0258 170.225 32.9248 184.125 32.9248 184.125 34.4248"/>
      <polygon points="190.8252 34.4248 190.8252 1.0248 206.3252 1.0248 206.3252 2.5248 192.4252 2.5248 192.4252 16.5248 205.9252 16.5248 205.9252 18.0258 192.4252 18.0258 192.4252 32.9248 206.3252 32.9248 206.3252 34.4248"/>
      <polygon points="210.4248 2.5249 210.4248 1.0249 228.8248 1.0249 228.8248 2.5249 220.4248 2.5249 220.4248 34.4249 218.8248 34.4249 218.8248 2.5249"/>
      <path d="M232.125 30.9248l1.2-1.2c.7 1 1.8 1.9 3.1 2.7 1.3.7 2.8 1.101 4.4 1.101 1.3 0 2.4-.201 3.4-.601.9-.399 1.7-.899 2.3-1.6.6-.6 1-1.4 1.3-2.2.3-.8.4-1.7.4-2.599 0-1.701-.4-3-1.1-4.101-.7-1.1-1.7-2-2.8-2.8-1.1-.8-2.3-1.5-3.7-2.099-1.3-.601-2.5-1.301-3.6-2.101s-2.1-1.7-2.8-2.8c-.7-1.1-1.1-2.5-1.1-4.2 0-1.2.2-2.3.7-3.3.5-1 1.1-1.8 1.8-2.5.8-.7 1.7-1.2 2.7-1.5 1-.4 2.1-.5 3.1-.5 1.7 0 3.2.3 4.5.9 1.3.6 2.4 1.4 3.3 2.5l-1.1 1.2c-.8-1-1.8-1.8-3-2.3-1.1-.5-2.4-.7-3.7-.7-.9 0-1.8.1-2.6.4-.8.3-1.5.7-2.099 1.3-.601.6-1.101 1.2-1.401 2-.4.8-.5 1.7-.5 2.6 0 1.4.401 2.6 1.1 3.5.8 1 1.7 1.8 2.8 2.5 1 .7 2.2 1.3 3.7 2.1 1.3.7 2.5 1.401 3.6 2.3 1.1.9 2.1 1.9 2.8 3.101.7 1.199 1.1 2.699 1.1 4.599 0 1.1-.2 2.1-.5 3.1s-.9 1.9-1.6 2.7c-.7.8-1.7 1.5-2.8 2-1.2.5-2.5.8-4.2.8-1.9 0-3.6-.4-5.1-1.1-1.4-1-2.6-2-3.6-3.2"/>
    </g>
    <g fill="#FFF" transform="translate(74 12)">
      <polygon points=".7251 1.0249 18.2251 1.0249 18.2251 6.8249 7.0251 6.8249 7.0251 15.9249 17.3251 15.9249 17.3251 21.7249 7.0251 21.7249 7.0251 36.0249 .7251 36.0249"/>
      <path d="M27.9248 17.3252h2.2c1.6 0 2.8-.5 3.5-1.4.7-.9 1.2-2.4 1.2-4.4 0-1.5-.3-2.7-1-3.7s-1.7-1.4-3.2-1.4c-.5 0-1 0-1.5.1s-.9.1-1.2.2v10.6zm-6.3-15.9c1.4-.3 2.8-.5 4.4-.7 1.6-.1 2.9-.2 4-.2 1.4 0 2.8.1 4.2.4 1.4.3 2.6.8 3.6 1.6s1.9 1.8 2.5 3c.6 1.3 1 2.9 1 4.9 0 2.8-.5 5.1-1.6 6.9-1 1.8-2.5 3-4.3 3.7l.9-.6 7.5 15.6h-7.2l-6.1-13.801-2.7-.699v14.5h-6.3v-34.6h.1zm29.7004 17.0997c0 1.8.1 3.4.3 4.9.2 1.5.5 2.8 1 3.9s1.1 2 1.8 2.6c.7.6 1.6 1 2.7 1 1.9 0 3.4-1 4.4-3 1-2 1.4-5.1 1.4-9.5 0-1.7-.1-3.3-.3-4.8-.2-1.5-.5-2.8-1-3.9s-1-2-1.8-2.7c-.8-.7-1.6-1-2.8-1-3.8.1-5.7 4.3-5.7 12.5m-6.6 0c0-5.9 1-10.5 3-13.5s5.1-4.7 9.3-4.7c2.2 0 4 .4 5.6 1.3 1.6.8 2.8 2.1 3.8 3.7s1.7 3.5 2.2 5.8c.5 2.3.7 4.8.7 7.5 0 5.9-1 10.5-3.1 13.5-2.1 3.1-5.2 4.7-9.3 4.7-2.2 0-4.1-.4-5.6-1.3-1.5-.8-2.8-2.1-3.8-3.6s-1.7-3.5-2.2-5.8c-.4-2.3-.6-4.8-.6-7.6"/>
      <polygon points="80.8252 18.8252 79.0252 15.2252 79.1252 18.7252 79.1252 36.0252 73.1252 36.0252 73.1252 .8252 77.9252 .8252 88.0252 18.4252 89.7252 21.2242 89.6252 18.5252 89.6252 1.0252 95.6252 1.0252 95.6252 36.2242 90.8252 36.2242"/>
      <polygon points="121.125 6.8252 112.925 6.8252 112.925 36.0252 106.625 36.0252 106.625 6.8252 98.325 6.8252 98.325 1.0252 121.125 1.0252"/>
      <polygon points="118.525 24.525 128.925 24.525 128.925 18.725 118.525 18.725"/>
      <polygon points="133.4248 1.0249 150.9248 1.0249 150.9248 6.8249 139.7248 6.8249 139.7248 15.4249 149.9248 15.4249 149.9248 21.2249 139.7248 21.2249 139.7248 30.2249 151.1248 30.2249 151.1248 36.0249 133.4248 36.0249"/>
      <polygon points="162.625 18.8252 160.825 15.5252 160.825 18.7252 160.825 36.0252 154.825 36.0252 154.825 .8252 159.625 .8252 169.725 18.4252 171.325 21.1252 171.325 18.5252 171.325 1.0252 177.325 1.0252 177.325 36.2242 172.525 36.2242"/>
      <path d="M191.125 6.3252h-1.6c-.5 0-1 .1-1.3.1v24.1c.1 0 .3.1.5.1h.8c.3 0 .5 0 .8.099.3.101.4 0 .5 0 1.5 0 2.7-.299 3.7-1 1-.699 1.7-1.599 2.3-2.799.6-1.201.9-2.5 1.2-4 .2-1.5.3-3.1.3-4.8 0-1.5-.1-3-.3-4.5-.2-1.4-.5-2.7-1-3.8-.5-1.1-1.2-2-2.2-2.6-1-.5-2.2-.9-3.7-.9zm-9.2-5.3c.6-.1 1.3-.2 2-.2s1.5-.1 2.3-.2c.8 0 1.5-.1 2.3-.1h2c2.8 0 5.1.4 6.9 1.3 1.9.8 3.3 2 4.5 3.6 1.1 1.5 1.9 3.4 2.4 5.6.5 2.2.7 4.6.7 7.2 0 2.4-.2 4.8-.7 6.999-.5 2.201-1.2 4.201-2.4 5.901-1.1 1.7-2.7 3-4.6 4-1.9 1-4.4 1.5-7.3 1.5h-1.8c-.8 0-1.5-.1-2.3-.1-.8 0-1.6-.1-2.3-.1-.7-.1-1.3-.1-1.7-.201V1.0252z"/>
    </g>
    <polygon stroke="#000" stroke-width=".25" points="5.125 58.5254 2.825 58.5254 2.825 56.3254 2.825 4.9244 .325 4.9244 .325 61.0254 44.425 61.0254 44.425 58.5254"/>
    <path fill="#000" d="M3.52479972 59.025H47.125V.20478484H5.51854622V2.924H2.925v3.12082977C2.77497867 5.96809807 2.60498323 5.9248 2.4248 5.9248c-.607 0-1.1.493-1.1 1.1 0 .608.493 1.1 1.1 1.1.18018323 0 .35017867-.04321024.5002-.11984438v2.03987418C2.77497867 9.96809806 2.60498323 9.9248 2.4248 9.9248c-.607 0-1.1.493-1.1 1.1 0 .608.493 1.1 1.1 1.1.18018323 0 .35017867-.0432102.5002-.1198444v2.0398742c-.15002133-.0767317-.32001677-.1200298-.5002-.1200298-.607 0-1.1.493-1.1 1.1 0 .608.493 1.1 1.1 1.1.18018323 0 .35017867-.0432102.5002-.1198444v2.0398742c-.15002133-.0767317-.32001677-.1200298-.5002-.1200298-.607 0-1.1.493-1.1 1.1 0 .608.493 1.1 1.1 1.1.18018323 0 .35017867-.0432102.5002-.1198444v2.0398742c-.15002133-.0767317-.32001677-.1200298-.5002-.1200298-.607 0-1.1.493-1.1 1.1 0 .608.493 1.1 1.1 1.1.18018323 0 .35017867-.0432102.5002-.1198444v2.0398742c-.15002133-.0767317-.32001677-.1200298-.5002-.1200298-.607 0-1.1.493-1.1 1.1 0 .608.493 1.1 1.1 1.1.18018323 0 .35017867-.0432102.5002-.1198444v2.0398742c-.15002133-.0767317-.32001677-.1200298-.5002-.1200298-.607 0-1.1.493-1.1 1.1 0 .608.493 1.1 1.1 1.1.18018323 0 .35017867-.0432102.5002-.1198444v2.0399002c-.15002133-.0767577-.32001677-.1200558-.5002-.1200558-.607 0-1.1.493-1.1 1.101 0 .607.493 1.099 1.1 1.099.18018323 0 .35017867-.0432102.5002-.1198183v2.0398741c-.15002133-.0767577-.32001677-.1200558-.5002-.1200558-.607 0-1.1.493-1.1 1.101 0 .607.493 1.099 1.1 1.099.18018323 0 .35017867-.0432102.5002-.1198183v2.0398741c-.15002133-.0767577-.32001677-.1200558-.5002-.1200558-.607 0-1.1.493-1.1 1.101 0 .607.493 1.099 1.1 1.099.18018323 0 .35017867-.0432102.5002-.1198183v2.0398741c-.15002133-.0767577-.32001677-.1200558-.5002-.1200558-.607 0-1.1.493-1.1 1.101 0 .607.493 1.099 1.1 1.099.18018323 0 .35017867-.0432102.5002-.1198183v2.0398741c-.15002133-.0767577-.32001677-.1200558-.5002-.1200558-.607 0-1.1.493-1.1 1.101 0 .607.493 1.099 1.1 1.099.18018323 0 .35017867-.0432102.5002-.1198183v2.0398741c-.15002133-.0767577-.32001677-.1200558-.5002-.1200558-.607 0-1.1.493-1.1 1.101 0 .607.493 1.099 1.1 1.099.18018323 0 .35017867-.0432102.5002-.1198183v2.0398741c-.15002133-.0767577-.32001677-.1200558-.5002-.1200558-.607 0-1.1.493-1.1 1.101 0 .607.493 1.099 1.1 1.099.608 0 1.1-.492 1.1-1.099 0-.0002667-e-7-.0005334-.8e-7-.0008z"/>
    <path fill="#FFF" stroke="#000" stroke-width=".25" d="M5.125 56.325h44.1V.225h-44.1v56.1zm18-22.4002l-10.7-4.6v-1.9l10.7-4.5v2l-8.5 3.5 8.5 3.5v2zm9.1001-13.6997l-4.7 16.2h-1.6l4.7-16.2h1.6zm13.3999 9.1001l-10.7 4.6v-2l8.5-3.5-8.5-3.5v-2l10.7 4.6v1.8zM7.125 1.5249c.607 0 1.1.493 1.1 1.1 0 .608-.493 1.1-1.1 1.1-.607 0-1.1-.492-1.1-1.1 0-.607.493-1.1 1.1-1.1zm0 4c.607 0 1.1.493 1.1 1.1 0 .608-.493 1.1-1.1 1.1-.607 0-1.1-.492-1.1-1.1 0-.607.493-1.1 1.1-1.1zm0 4c.607 0 1.1.493 1.1 1.1 0 .608-.493 1.1-1.1 1.1-.607 0-1.1-.492-1.1-1.1 0-.607.493-1.1 1.1-1.1zm0 4c.607 0 1.1.493 1.1 1.1 0 .608-.493 1.1-1.1 1.1-.607 0-1.1-.492-1.1-1.1 0-.607.493-1.1 1.1-1.1zm0 4c.607 0 1.1.493 1.1 1.1 0 .608-.493 1.1-1.1 1.1-.607 0-1.1-.492-1.1-1.1 0-.607.493-1.1 1.1-1.1zm0 4c.607 0 1.1.493 1.1 1.1 0 .608-.493 1.1-1.1 1.1-.607 0-1.1-.492-1.1-1.1 0-.607.493-1.1 1.1-1.1zm0 4c.607 0 1.1.493 1.1 1.1 0 .608-.493 1.1-1.1 1.1-.607 0-1.1-.492-1.1-1.1 0-.607.493-1.1 1.1-1.1zm0 4c.607 0 1.1.493 1.1 1.1 0 .608-.493 1.1-1.1 1.1-.607 0-1.1-.492-1.1-1.1 0-.607.493-1.1 1.1-1.1zm0 4.0005c.607 0 1.1.492 1.1 1.1 0 .607-.493 1.099-1.1 1.099-.607 0-1.1-.492-1.1-1.099 0-.608.493-1.1 1.1-1.1zm0 4c.607 0 1.1.492 1.1 1.1 0 .607-.493 1.099-1.1 1.099-.607 0-1.1-.492-1.1-1.099 0-.608.493-1.1 1.1-1.1zm0 4c.607 0 1.1.492 1.1 1.1 0 .607-.493 1.099-1.1 1.099-.607 0-1.1-.492-1.1-1.099 0-.608.493-1.1 1.1-1.1zm0 4c.607 0 1.1.492 1.1 1.1 0 .607-.493 1.099-1.1 1.099-.607 0-1.1-.492-1.1-1.099 0-.608.493-1.1 1.1-1.1zm0 4c.607 0 1.1.492 1.1 1.1 0 .607-.493 1.099-1.1 1.099-.607 0-1.1-.492-1.1-1.099 0-.608.493-1.1 1.1-1.1zm0 4c.607 0 1.1.492 1.1 1.1 0 .607-.493 1.099-1.1 1.099-.607 0-1.1-.492-1.1-1.099 0-.608.493-1.1 1.1-1.1z"/>
  </g>
</svg>
